Patient4_TMGait_0pt4_01_right_11_EMG.mot
version=1
nRows=36
nColumns=33
inDegrees=no
endheader
time	1LAddLong	2LGlutMax	3LGlutMed	4LIliopsoas	5LSemiMemb	6LBicFemLong	7LRecFem	8LVastMed	9LVastLat	10LGasMed	11LTibAnt	12lTibPost	13LPeroneusLong	14LSol	15LExtDigLong	16LFlexDigLong	17RAddLong	18RGlutMax	19RGlutMed	20RIliopsoas	21RSemiMemb	22RBicFemLong	23RRecFem	24RVastMed	25RVastLat	26RGasMed	27RTibAnt	28RTibPost	29RPeroneusLong	30RSol	31RExtDigLong	32RFlexDigLong
14	0.011749	-0.027466	-0.002899	0.00885	0.028839	0.10986	0.04303	-0.005951	-0.013733	0.056	-0.002594	0.032501	0.10315	-0.23041	0.082703	-0.023346	-0.021515	-0.23666	0.097351	0.11261	0.047607	-0.082703	0.13306	-0.088806	-0.003967	-0.014343	0.36331	-0.003967	-0.041656	-0.062561	0.00061	0.002899
14.001	0.010986	0.052032	-0.010376	0.007629	0.020294	0.068665	0.06958	-0.001068	-0.010529	-0.043335	0.032501	-0.010986	-0.67642	0.11078	-0.023804	-0.0354	-0.011749	-0.19836	0.067902	0.16205	0.036926	-0.084229	0.10117	-0.13046	-0.033569	-0.003662	0.61783	-0.006104	0.057831	-0.054474	0.006866	-0.005035
14.002	0.010376	0.070038	0.000153	-0.006561	0.016174	0.10544	0.045319	0.006104	-0.00946	-0.053406	0.024872	0.24658	-0.60516	0.39429	-0.083313	0.0177	-0.00946	-0.20783	0.12466	0.066223	0.026093	-0.084076	0.037384	-0.088196	0.001068	-0.008392	0.52383	-0.00473	0.16525	-0.088501	0.00351	-0.004578
14.003	0.003052	0.10086	0.007782	0.000763	0.028992	0.001678	0.040436	-0.00351	-0.000305	-0.036926	-0.012665	0.19318	-0.22507	0.36941	-0.020599	0.061951	0	-0.17441	0.070343	-0.042572	0.022583	-0.098267	0.023956	-0.06424	-0.005341	-0.018005	0.13001	-0.005951	0.050812	-0.11383	0.003052	-0.008698
14.004	-0.005035	0.04776	0.062866	-0.008545	0.028229	-0.19836	0.009003	-0.001221	-0.010986	-0.20645	-0.019989	-0.42725	-0.006561	-0.055695	-0.005798	0.046539	0.016937	-0.19424	0.094604	-0.057526	0.021057	-0.10284	0.084076	-0.082397	-0.001373	-0.010834	0.067749	-0.005341	-0.26352	-0.10193	0.004272	-0.00473
14.005	0	0.072479	0.006104	0.010376	-0.00351	-0.53925	0.021973	-0.00351	-0.006256	-0.2179	-0.020294	-0.072784	0.32761	-0.18829	-0.000458	0.014801	0.047913	-0.21439	0.13886	-0.020447	0.01709	-0.098572	0.062103	-0.076141	-0.012054	-0.011292	0.07019	-0.006409	-0.4686	-0.036774	0.006104	-0.013733
14.006	-0.000305	0.093079	-0.008087	0.003357	0.047913	-0.34576	0.033112	0.005951	-0.010529	-0.048523	0.018005	-0.010834	0.043182	-0.24902	-0.02533	-0.010376	0.025787	-0.24979	0.18204	-0.03952	0.012665	-0.095062	0.021362	-0.10971	0.008087	-0.010223	0.14969	-0.002747	-0.33218	0.028992	0.006561	-0.006409
14.007	0.008392	0.075989	0.036316	-0.004883	0.055847	-0.089874	0.039673	0.003357	-0.032501	0.19592	0.009003	-0.013733	0.096283	-0.24231	-0.029602	-0.016785	0.019226	-0.19165	0.20233	0.016022	0.005188	-0.10361	0.001831	-0.052185	-0.005951	-0.011444	-0.12039	-0.001678	0.48569	-0.039215	0.004578	-0.009308
14.008	-0.000305	0.1149	0.050354	-0.009766	0.04715	-0.052338	0.080261	0.010834	-0.055847	0.051422	-0.008087	-0.027618	0.2771	-0.23117	0.012817	-0.056458	0.010681	-0.21439	0.18265	0.005798	0.008545	-0.10727	-0.02594	-0.098724	-0.007782	-0.014038	-0.10239	-0.001526	0.21881	-0.063629	0.006256	-0.00473
14.009	-0.010376	0.1152	0.042419	0	-0.015564	-0.1152	0.033112	0.005951	0.033569	-0.054626	0.003204	-0.06424	-0.15076	-0.26611	0.061188	-0.048523	-0.002747	-0.23605	0.16892	0.019531	0	-0.11902	0.008545	-0.11887	0.007935	-0.014648	-0.43961	-0.000153	-0.028076	-0.039825	0.010834	-0.002594
14.01	-0.012817	0.083313	0.054779	-0.004272	-0.11429	0.012054	0.017242	0.005341	0.01297	0.14175	0.015869	-0.17456	-0.12604	-0.31891	0.067749	0.020599	0.004883	-0.18585	0.15533	0.064392	-0.00824	-0.11932	0.02121	-0.11978	0.002594	-0.015411	-0.66177	-0.002899	0.00824	-0.061035	0.009308	-0.000305
14.011	-0.001984	0.08255	0.11215	0.002594	-0.19516	0.001373	0.00946	0.004883	-0.018921	0.29511	-0.002899	-0.10117	-0.082855	-0.31128	0.057068	0.095062	0.007172	-0.15686	0.3125	0.026245	0.004883	-0.12558	-0.010681	-0.13046	0.012054	-0.0177	-0.36758	0.001221	-0.002899	-0.047302	0.009003	0.004425
14.012	0.018463	0.13077	0.10529	0.004272	-0.055847	-0.047913	-0.015564	-0.001526	-0.022888	0.68436	-0.001068	0.19974	-0.008392	-0.17609	0.02182	-0.033875	0.024872	-0.20264	0.20432	0.049133	0.015259	-0.13641	0.006256	-0.17227	0.007172	-0.014496	0.05127	-0.003967	-0.11383	-0.051422	0.006714	-0.001526
14.013	0.010834	0.10483	0.016174	-0.018463	0.20096	-0.027771	-0.012665	0.002136	0.003357	0.36484	0.009613	-0.042419	0.13901	-0.16174	-0.034485	-0.10696	0.058136	-0.22568	0.072784	0.058289	0.015564	-0.16022	0.006104	-0.13596	-0.009003	-0.015869	0.20508	-0.004578	-0.10132	-0.043488	0.014038	-0.014648
14.014	0.011597	0.084076	0.040131	-0.001984	0.15671	-0.031891	0.043182	-0.009613	0.04425	0.40268	-0.00412	-0.060577	0.066376	-0.079651	0.019684	0.043488	0.053101	-0.19974	0.28442	-0.002899	0.012054	-0.15854	-0.018311	-0.11963	-0.000458	-0.014343	0.15381	-0.002136	-0.030365	-0.076141	0.010986	-0.002594
14.015	0.00885	0.094299	0.062103	-0.00351	0.032654	-0.058441	0.078888	-0.006104	0.12039	0.4715	0.002136	-0.088501	-0.18875	-0.18173	0.044861	0.034485	0.036774	-0.20279	0.3093	-0.003204	0.001984	-0.15595	-0.086212	-0.1741	0.006561	0.001831	0.3685	-0.003815	0.11398	-0.09964	0.011749	-0.003815
14.016	0.010834	0.031738	0.005341	0.00412	-0.016937	-0.03479	0.092316	-0.003815	0.12207	0.59433	-0.005951	-0.14526	-0.081482	-0.38193	0.018921	-0.018463	0.018311	-0.16281	0.27542	0.068665	0.010376	-0.16205	-0.090942	-0.14374	0.014801	-0.003662	0.33585	-0.001373	0.16235	-0.023804	0.015564	0.000305
14.017	0.012207	0.039368	-0.007324	0.001831	-0.032501	-0.003967	0.075684	-0.001984	0.073853	0.82275	-0.010681	-0.010834	0.17105	-0.51025	-0.001984	-0.071106	-0.001068	-0.12528	0.2858	0.022278	-0.002289	-0.1796	0.056	-0.099792	0.007324	-0.009155	-0.36636	-0.004425	0.13825	0.062408	0.013275	-0.002594
14.018	0.006409	0.033875	-0.089569	0.006714	-0.005493	-0.032654	0.044708	0.004883	0.053406	0.2684	-0.004578	-0.042572	0.2214	-0.19241	-0.041656	-0.78064	-0.007782	-0.16159	0.10788	0.027313	-0.001526	-0.16357	0.14862	-0.017395	0.01358	-0.019226	-0.47562	-0.003204	0.010223	-0.022736	0.024109	-0.011749
14.019	0.009155	0.054474	-0.095673	0.000763	0.005798	-0.1181	0.025635	0.004578	0.031128	-0.30777	-0.027161	-0.031281	0.031738	0.22278	-0.085144	0.5867	-0.014954	-0.12253	0.10727	0.056458	-0.001373	-0.17792	0.10162	-0.013428	0.006714	-0.019379	-0.18204	-0.003357	0.002289	-0.12772	0.012512	-0.014801
14.02	0.002594	0.078888	-0.092163	-0.009613	0.055695	-0.088654	0.037231	0.003204	0.021667	-1.4093	-0.006409	0.002747	-0.001526	0.057373	-0.10498	0.16647	0.000458	-0.11612	0.29236	0.06897	-0.001221	-0.16068	0.052185	-0.03006	0.028381	-0.010986	-0.12238	-0.008087	-0.017395	-0.16037	0.010681	-0.013275
14.021	-0.000153	0.083923	-0.000916	-0.005341	0.040894	-0.037994	0.026245	0.001068	0.028839	-1.0851	-0.001678	-0.042572	-0.041504	-0.032806	-0.08606	-0.16113	-0.004578	-0.13306	0.26337	0.093536	-0.005493	-0.1297	-0.015717	-0.018311	0.024414	-0.010376	-0.103	-0.005341	0.015411	-0.17212	0.016785	-0.014954
14.022	0.003662	0.077362	0.076599	-0.010986	0.013428	-0.048676	0.032043	0.003204	0.013275	-0.45456	0.020142	-0.014496	-0.063019	0.33829	-0.06012	-0.19379	-0.015717	-0.13962	0.27466	0.026245	0.009308	-0.097351	-0.049896	-0.005341	0.021973	-0.006561	0.30716	-0.002594	0.21545	-0.18997	0.012054	-0.012665
14.023	0.012512	0.10651	0.02655	-0.009155	0.032196	-0.072479	0.028687	0	0.017853	-0.019226	0.017395	-0.018311	-0.085449	0.63889	-0.026245	0.4277	-0.008545	-0.14542	0.27023	-0.052338	0.026855	-0.065918	-0.041046	-0.000763	0.048523	-0.021667	0.30167	-0.003204	0.15549	-0.17731	0.013428	-0.011292
14.024	0.024414	0.081787	0.049133	0.004272	0.090485	-0.044098	0.022278	-0.002289	0.027924	0.21027	0.018463	-0.014038	-0.13809	0.62729	0.007019	-0.12283	0.018005	-0.16098	0.21164	-0.065002	0.016632	-0.06134	0.000305	-0.071564	0.039978	-0.008392	0.27863	-0.00473	0.019989	-0.1004	0.015717	-0.007629
14.025	0.019836	0.12344	0.01236	0.004425	0.093079	0.074615	0.022125	-0.000153	0.039063	0.093231	0.007629	-0.026398	-0.11185	0.45181	0.040588	-0.009003	-0.013275	-0.1445	0.14481	-0.079651	0.009613	-0.052185	0.00351	-0.015106	0.031891	-0.001678	0.10773	-0.006409	-0.053864	-0.071716	0.016479	-0.009766
14.026	0.012665	0.12039	0.005188	0.014496	0.015717	0.14847	0.028687	-0.045319	0.037231	0.4068	0.027008	-0.027161	-0.065918	-0.13733	0.053253	0.000916	-0.019836	-0.13077	0.31052	-0.055695	0.000305	-0.033722	0.028687	-0.006104	0.036774	-0.008392	-0.093079	-0.005798	0.020294	-0.001526	0.013733	-0.009003
14.027	0.010986	0.13977	0.05127	0.009308	0.018768	0.11017	0.024414	-0.021973	0.051422	0.70526	0.015106	-0.020447	-0.056	-0.33905	0.051727	-0.038757	-0.014648	-0.16556	0.36987	0.045624	0.001526	-0.006714	0.015259	-0.050049	0.025635	-0.011444	-0.23132	-0.00351	0.035248	0.12329	0.012817	-0.010376
14.028	0.019836	0.12054	0.08194	0.003052	0.011139	0.072021	0.014038	-0.002289	0.042267	0.37293	0.010986	0.17197	-0.10712	-0.078125	0.062866	-0.046234	-0.011902	-0.1265	0.28946	0.12314	0.007324	0.00412	0.016785	-0.082245	0.024872	-0.015259	0.00412	-0.004272	0.021515	0.19348	0.013733	-0.001526
14.029	0.008087	0.1239	0.006256	0.005341	-0.003967	0.070953	0.022583	0.004883	-0.047455	-0.45685	0.00824	-0.2211	-0.16373	0.029602	0.06897	-0.04715	0.00473	-0.099487	0.15106	0.033875	0.033875	0.00946	0.046234	-0.033875	0.019836	-0.008545	0.1886	-0.00473	-0.034027	0.12299	0.014801	-0.003052
14.03	0.00351	0.11749	0.040588	-0.002899	0.011139	0.075226	0.023346	0.007782	-0.040588	-0.51224	-0.008545	-0.29022	-0.06546	-0.003967	0.05722	-0.079193	0.018616	-0.085449	0.09903	-0.091248	0.033264	0.033264	0.063782	-0.07431	0.006561	-0.000763	0.29297	-0.001526	-0.19592	0.029144	0.014038	-0.005798
14.031	0.005035	0.089264	0.008087	-0.004883	0.027618	0.075836	0.001221	0.001373	-0.020142	-0.11871	-0.014648	0.058746	0.11719	-0.11169	0.010529	-0.086212	0.020905	-0.0914	0.15427	-0.14786	0.015869	0.080109	0.10773	-0.047455	0.006866	-0.009918	0.061951	-0.004578	-0.048676	0.005646	0.008392	-0.008545
14.032	0.00412	0.090332	-0.013733	0.002136	0.023956	0.13443	0.006714	0.007172	-0.018921	0.019226	-0.013733	0.16251	0.21988	-0.26764	0.008087	-0.025024	0.028229	-0.083923	0.076294	-0.057831	-0.015717	0.12924	0.083313	-0.071564	0.009155	-0.002899	-0.22247	-0.005798	0.43045	0.031738	0.01236	-0.002441
14.033	0.005646	0.08667	0.028229	0.007629	-0.003815	0.12726	-0.014496	0.007019	-0.020447	0.11826	-0.001068	0.055084	0.15259	-0.34378	0.003967	0.13046	0.020294	-0.087128	0.15457	0.02655	-0.015259	0.10681	0.082245	-0.082855	0.010834	-0.006256	-0.32211	-0.00885	0.1651	0.069885	0.012512	-0.001068
14.034	0.014191	0.11063	0.019836	0.007477	-0.007629	0.12634	-0.023041	0.011444	0.00351	-0.16495	0.003052	-0.025482	0.11505	-0.29755	-0.004425	-0.439	0.01236	-0.080719	0.177	0.079498	0.021362	0.072174	0.096588	-0.054169	0.007172	-0.005188	-0.26871	-0.004272	-0.095978	0.02533	0.010071	-0.000916
14.035	-0.002594	0.095978	0.080261	-0.006256	0.010529	0.13153	-0.006561	0.006561	0.021667	-0.34073	-0.007629	-0.083466	0.095062	0.23315	0.005341	0.20859	-0.028076	-0.041962	0.19287	0.081787	-0.007935	0.049744	0.04303	-0.057526	0.010834	0.00061	-0.062714	-0.005798	-0.11612	-0.087585	0.014038	-0.007629
